<?xml version="1.0" standalone="no"?>
<!DOCTYPE svg PUBLIC "-//W3C//DTD SVG 20010904//EN"
 "http://www.w3.org/TR/2001/REC-SVG-20010904/DTD/svg10.dtd">
<svg version="1.0" xmlns="http://www.w3.org/2000/svg"
 width="500.000000pt" height="138.000000pt" viewBox="0 0 500.000000 138.000000"
 preserveAspectRatio="xMidYMid meet">

<g transform="translate(0.000000,138.000000) scale(0.100000,-0.100000)"
fill="#000000" stroke="none">
<path d="M650 1257 c-23 -12 -25 -18 -28 -100 -5 -140 -48 -127 423 -127 l405
0 0 -60 0 -60 -384 0 c-336 0 -387 -2 -400 -16 -23 -22 -23 -186 0 -208 13
-14 64 -16 400 -16 l384 0 0 -71 c0 -111 -2 -109 153 -109 90 0 137 4 145 12
9 9 12 106 12 374 0 324 -2 363 -17 375 -23 20 -1055 26 -1093 6z"/>
<path d="M2830 1257 l-25 -13 -3 -578 c-1 -419 1 -583 9 -592 9 -11 43 -14
134 -14 68 0 130 3 139 6 14 6 16 67 16 595 l0 589 -26 10 c-37 14 -214 12
-244 -3z"/>
<path d="M4140 1258 l-25 -14 -3 -572 c-1 -384 1 -579 8 -593 10 -17 22 -19
143 -19 90 0 137 4 145 12 9 9 12 154 12 589 0 524 -2 578 -17 590 -23 20
-229 24 -263 7z"/>
<path d="M1912 1238 c-17 -17 -16 -192 1 -206 7 -6 37 -12 67 -14 l55 -3 3
-439 c1 -304 6 -443 13 -453 15 -17 229 -19 247 -1 9 9 12 120 12 439 0 235 3
434 6 443 4 12 20 16 55 16 l49 0 0 -443 c0 -421 1 -445 19 -461 15 -14 36
-16 127 -14 104 3 109 4 121 28 18 36 18 1054 0 1090 l-13 25 -375 3 c-283 2
-378 -1 -387 -10z"/>
<path d="M3230 1231 c-14 -28 -13 -184 2 -199 9 -9 76 -12 240 -12 l228 0 0
-100 0 -100 -224 0 c-181 0 -226 -3 -235 -14 -9 -11 -11 -90 -9 -293 l3 -280
28 -41 c15 -23 46 -52 70 -64 41 -22 52 -23 350 -26 227 -2 312 0 323 9 16 13
20 184 4 209 -8 13 -49 15 -250 18 l-240 3 0 125 0 124 209 0 c115 0 221 4
235 10 l26 10 0 308 c0 226 -3 311 -12 320 -9 9 -106 12 -375 12 -348 0 -363
-1 -373 -19z"/>
<path d="M900 561 c-5 -11 -10 -72 -10 -135 l0 -116 -150 0 c-177 0 -170 5
-170 -124 0 -64 4 -88 16 -100 14 -14 82 -16 604 -16 522 0 590 2 604 16 20
20 23 181 4 207 -12 15 -45 17 -303 19 l-290 3 -2 110 c-4 170 11 155 -153
155 -127 0 -140 -2 -150 -19z"/>
</g>
</svg>
